<?xml version="1.0" encoding="utf-8"?>
<!-- Generator: Adobe Illustrator 21.1.0, SVG Export Plug-In . SVG Version: 6.00 Build 0)  -->
<svg version="1.1" id="Layer_1" xmlns="http://www.w3.org/2000/svg" xmlns:xlink="http://www.w3.org/1999/xlink" x="0px" y="0px"
	 viewBox="0 0 1600 410" style="enable-background:new 0 0 1600 410;" xml:space="preserve" preserveAspectRatio="xMinYMax slice">
<style type="text/css">
	.st0{fill:#08303C;}
</style>
<title>1</title>
<g id="Layer_2">
	<g id="horizon">
		<path class="st0" d="M1600,0c-12.5-0.2-37.7,6.6-50.2,7.2c-15.6,0.8-29.7-0.5-45.3,0c-16.7,0.5-23.3,10.9-39.9,8
			c-6.3-1.1-12.5-3-18.8-4.1c-1.3-0.3-2.7-0.5-4-0.7c-0.3,0-2.1-0.3-2.6-0.3c-3-0.3-6.1-0.4-9.1-0.1c1.5-0.1-1.1,0.7-1.9,0.8
			l-1.2,0.6c-2.6,1.5-5,3-7.4,4.7c-3.9,2.9-8,5.4-12.4,7.7c-11.1,5.2-22.9,5-35.1,4.1s-24.3-2.5-36.3-4l-16.3-2.2
			c1.1,0.2-4.4-0.6-5.4-0.7c-2.2-0.3-4.4-0.5-6.7-0.7c-15.2-1.6-30.1-6.1-45-9.1c-8.3-1.7-11.7-2.3-19.1-2.7
			c-3.7-0.2-7.4-0.1-11.1,0.4l-0.6,0.1c-1.7,0.3-3.5,0.5-5.2,0.8c-13.1,2.3-26,5.7-39,8.5c-13.6,2.9-27.4,5-41,8.1
			c-12.4,2.9-24.7,5.9-37.1,8.7c-2.2,0.5-4.5,1-6.7,1.5c-5.2,3.3-10.7,5.8-16.5,7.8c-11.2,3.6-23.4,3.6-35.2,3.1
			c-12.3-0.7-24.7-1-37-2.1c-4.9-0.4-9.8-1-14.7-1.6c-3.1,0-6.2,0.1-9.4,0.2c-13.9,0.4-27.7,1.4-41.3,2c-10.6,0.5-21.4,0.8-32.2,0.4
			c-4.4,2.7-8.5,5.6-12.5,8.8c-7.3,5.5-24.8,4.2-27.2,1.3c-19.4,3.9-31.7-6.3-50.3-0.8c-8.1,4.3-16,8.9-24,13.5
			c-7,4-13.8,8.6-21.3,11.6c-7.1,2.9-14.6,4.3-22.3,4.4c-16,0.4-32.2-1.8-48-3.3c-5.9-0.5-11.8-0.9-17.7-1.3
			c-0.4,0.1-0.9,0.2-1.3,0.3c-17,2.7-33.4,0-49.9-2.9c-10.7,3-22,5.3-32.5,2c-7.7-2.6-13.5-7.1-18.9-12.8c-1.7-1.8-2.7-3-4.1-3.4
			c-3.1-0.9-6.6-0.6-9.7-0.9c-7.4-0.7-14.7-2.5-22.1-3.1c-7.4-0.6-15.2-0.9-22.8-0.9c-14.5,0-31.3,3.5-45.1-1.9
			c-3.1-1.2-5.8-3.1-8.1-5.3c-0.4-0.4-0.8-0.9-1.2-1.3c-1.1-0.9-2.2-1.6-3.3-2.4c-0.2,0-0.4,0-0.6-0.1h0.6l-3-0.2
			c-1.9-0.1-3.7,0-5.6-0.1c-7.7-0.3-15.4-1.3-23.1-1.6c-7-0.3-14.1-0.5-20.9-2.1c-7.7-1.9-13.7-5.8-19.5-10.6
			c-0.7-0.6-1.4-1.2-2.2-1.8l-0.2-0.1l-0.2-0.1c-11.8-3.3-23.7-6.5-35.7-9.1c-3.1-0.7-6.2-1.3-9.3-1.8c-1.6-0.3-3.1-0.6-4.7-0.8
			l-0.5-0.1h-1.2c-2.6,0.1-5.1,0.2-7.7,0.3h-0.3l-0.7,0.1c-1.1,0.2-2.1,0.4-3.2,0.6c-11.4,2.3-22.4,5.6-34.1,6.9
			c-11.4,1.2-23.3,0-34.6-2.3c-5-1-10-2.3-15-3.4c-2.3-0.5-4.7-1-7-1.4c-1-0.2-1.9-0.3-2.9-0.5c-0.4,0-1.1-0.1-1.4-0.1
			c-24-1.3-47.1,5.4-72.1,10c-24.2,4.4-49.7,8.5-74.2,3.9c-16-3-31.5-8.5-46.9-13.5S16,3.2,0,0v410h1599.9L1600,0L1600,0z"/>
	</g>
</g>
</svg>
