<?xml version="1.0" encoding="utf-8"?>
<!-- Generator: Adobe Illustrator 21.1.0, SVG Export Plug-In . SVG Version: 6.00 Build 0)  -->
<svg version="1.1" id="Layer_1" xmlns="http://www.w3.org/2000/svg" xmlns:xlink="http://www.w3.org/1999/xlink" x="0px" y="0px"
	 viewBox="0 0 1600 430" style="enable-background:new 0 0 1600 430;" xml:space="preserve" preserveAspectRatio="xMinYMax slice">
<style type="text/css">
	.st0{fill:#1A6F93;}
</style>
<title>2</title>
<g id="Layer_2">
	<g id="horizon">
		<path class="st0" d="M1534.7,0.3c-1.6,1.1-3.4,1.9-5.3,2.3c-8.9,1.8-18,2.8-27,2.9l-4.7,0.5l-4.7,0.6l-0.9,0.1
			c-11.8,1.6-23.5,3.5-35.2,5.7c-21.2,4.1-42,10.3-63.6,12.8l-2.2,0.2c-1.2,1.3-2.6,2.4-4.2,3.1c-16.2,7.5-35.1,6.7-52.5,4.3
			c-15-2.2-29.2-8.4-43-14.3c-3.5-0.5-7-1-10.5-1.5l-3.7-0.5l-0.5-0.1h-0.1l-7.6-0.8c-21.2-2.2-42.1-5.9-63.3-8.9
			c-1.2-0.2-2.4-0.5-3.5-1l-4.6,0.5c-11.5,1.2-22.8,1.3-33.8-0.7l-14.6,14c-1,0.5-2.1,0.9-3.2,1.2l-27.1,6
			c-6.7,3.4-13.4,6.7-20.7,9.1c-1,0.3-2.1,0.5-3.1,0.5c-2.3,2.2-5.4,3.3-8.6,3.2c-23.5,0-37-14.6-60.5-15.8
			c-18.8,4.4-45.3,9.4-64.7,11c-17.6,1.5-42.3-9.7-59.8-7c-18.4,2.8-36.6,24-54.9,27.4c-18.1,3.4-35.2,13.8-53.4,9.3
			c-12.6-3.2-23.1-12.5-34.3-16.9l-39.3-1.1l-43.7-11c-1.2,0.8-2.5,1.4-3.9,1.7c-15.6,3.4-31.6,3.5-47.2,6.4
			c-15.2,2.9-30,7.3-45.6,7.2c-2.4,2.5-5.7,3.9-9.1,4c-10.3,0.6-20.2-5.1-28.2-10.8c-1.6-0.2-3.1-0.7-4.5-1.4
			c-2.3-1.2-6.1-1.7-9.6-2.3c-4.4-0.7-8.6-1.9-12.7-3.7c-3.2-1.5-5.4-4.4-5.9-7.9c-15.5,1.7-30.6-1.9-45.8-4.2L444,24.4
			c-3.4,0.6-7.5-2.5-10.8-3.7l-7.5-3.6c-3,0.8-6.2,0.8-9.2,0c-3.7-1-7.5-1.9-11.3-2.6c-1.2-0.2-2.4-0.4-3.6-0.6
			c-0.6-0.1-3-0.4-3.3-0.4c-6.9-0.7-13.8-0.9-20.7-0.7c-3.5,0.1-7,0.3-10.5,0.6c-1.7,0.1-3.5,0.3-5.2,0.5l-3.4,0.5
			c-6.3,1-12.6,2.3-18.7,3.9c-14.1,3.8-28,6.7-42.6,7.5c-13,0.6-26.1,0.1-39-1.7c-17-2.2-33.7-5.5-50.5-9c-3.8,0-7.6-0.4-11.4-1.2
			c-1.2,0.5-2.5,0.6-3.8,0.5c-6.9-0.4-13.5-2-20.2-3.6c-6.2-1.3-12.5-1.8-18.7-1.2c-1.9,0.1-3.8,0.3-5.8,0.5c-12,3-24.4,6.2-36.8,5
			c-6.5,0.5-13.5,0.8-19.9-0.7C85,13.1,80,10.4,73.7,9.8C61,8.9,48.6,4.3,36,4.3c-1.1,0-2.1-0.2-3.1-0.5c-1.7,0.4-3.5,0.5-5.3,0.1
			c-3.3-0.4-6.5-1.4-9.5-2.9L0,0.8V430h1600V0L1534.7,0.3z"/>
	</g>
</g>
</svg>
