<?xml version="1.0" encoding="utf-8"?>
<!-- Generator: Adobe Illustrator 21.1.0, SVG Export Plug-In . SVG Version: 6.00 Build 0)  -->
<svg version="1.1" id="Layer_1" xmlns="http://www.w3.org/2000/svg" xmlns:xlink="http://www.w3.org/1999/xlink" x="0px" y="0px"
	 viewBox="0 0 1600 630" style="enable-background:new 0 0 1600 630;" xml:space="preserve" preserveAspectRatio="xMinYMax slice">
<style type="text/css">
	.st0{fill:#72ABC0;}
</style>
<title>3</title>
<g id="Layer_2">
	<g id="horizon">
		<path class="st0" d="M1542.9,160c-6.3,2.8-12.8,5-19.6,6.5c-11.1,2.4-21.9,6.6-33.4,5.6c-6.2-0.6-12.5-1.6-18.6-2.9l-2.7-0.6
			c-1,0.3-5.3-0.3-6.2-0.3c-7,0-14.3,0.6-21.3-0.4c-11.9,1-23.9,1.1-35.9,0.1c-10.3-0.9-20.3-1.5-30.6-0.9
			c-10.4,0.6-20.7,1.7-31.1,1.7c-3,0-5.9-0.7-8.5-2.1c-6,0.6-12,0.1-17.8-1.3h-4.4l-18.8-7v-10.7l-6.5-13.9c0,0-6-4.4-8.7-6.5
			c0,0-8-5.9-8-10.7S1269,89,1269,89c-1.3-2.8-1.2-5.8,0-9.2V69.3c-1-2.7-3.1-8.4-3.1-8.4l-7.5-7.5c0,0-6.8,1.8-9.7,0.8v43
			c0,0-2.3,19.8-4.7,23.6s-8.3,2-8.3,2l-4.3-85.8c0,0-2.3-2-2.1-3.9c0.2-2.9-0.1-5.7-1-8.5c-1.9-0.7-3.5-1.8-4.8-3.4
			c-0.9,0.6-1.9,0.9-2.9,1c-3.8,0.2-10.5-2.9-10.5-2.9l-2.4-4.1c0,0-0.1-4-0.4-4.2c-3.7-2.8-7.2-5.8-10.5-9.1
			c-5.1,0.1-10.3-0.1-15.3-0.1c-1.4,0-2.7-0.6-3.6-1.7h-1.1l-7.8,11.5h-9.4c-0.5,0-2.7,8-3,8.9c-0.1,0.3-0.3,0.6-0.4,0.9
			c-0.6,2.5-1.2,5.1-1.7,7.6c-0.6,2.9-0.6,6.2-2.5,8.8c-2.1,2.6-5,4.5-8.2,5.6c-0.3,0.4-0.8,0.7-1.2,1c-4.2,2.5-7.7,5.8-11.6,8.7
			c-0.6,3.3-0.9,6.7-1.5,10c-0.2,1.4-1.1,2.6-2.5,3.1l-1,4.4c0,0-2.2,4.4-4.6,4.5l-1.2,9v34.6l-6.3,19.6l-13,16.1l-2.8,3.3
			c-1.8,3.7-3.8,7.4-6.7,10.3c-0.4,2.2-2.3,3.9-4.5,4c-0.4,0-0.9,0-1.3,0.1c-5.2,2.3-11.2,2.4-16.7,2.6c-17.2,0.4-35-3-51.6,3
			c-7.2,2.6-13.8,6.4-21.4,8c-5.2,1.1-10.5,1.7-15.8,2c-4.5,0.2-10.1,0.3-13.7-2.8c-1.3-1.1-2.3-2.7-2.8-4.3
			c-3.9-0.7-7.7-1.7-11.5-2.6c-2,0-4,0.1-5.9,0.1c-3.2-0.1-6.3,0.6-9.2,1.9c-2.2,1.1-4.5,2.4-6.9,3c-4.9,1.1-7.2-2.9-11.2-4.6
			c-5.9-2.5-14.2-2.2-20.3-0.7c-1.6,0.4-3.2-0.1-4.2-1.4c-1.8-0.2-3.6-0.4-5.4-0.4c-0.8,0-1.6-0.3-2.3-0.7c-3,0.5-6,0.7-9,0.7
			c-5.1-0.1-10.1,0.2-15.2,0.8c-4.5,0.6-9.3,1.9-13.4-0.6c-1.4-0.8-3.2-1.1-4-2.1s-1-3.8-1.3-5.2c-1.2-3.9-1.8-8-1.8-12.1
			c0.1-5.9-0.7-17.2-0.8-19.1c-0.6-0.6-1.2-1.3-1.7-2.1c-0.5-0.7-1-1.5-1.5-2.2c-0.4-0.4-0.8-0.8-1.3-1.2l-0.4-0.3
			c-1.4-0.8-2.6-1.9-3.6-3.1c-0.5-0.6-3.8-0.3-6.9,0.1c-2.3,1.7-4.9,3-7.3,4.5c0,0.2-0.1,0.4-0.1,0.6c-4.3,12.3-0.1,25.4-3.7,37.7
			c0.6,0.9,0.8,2,0.6,3c-0.7,3.8-4.9,11.9-2.5,15.4c1.4,2.1,0.1,5.7-2.6,6.2c-2.1,0.4-4.3,0.3-6.4-0.2l-1.4,2.6l-3.4-5.7
			c-1-1.2-1.8-2.5-2.4-4l-1.8-3v-4.3c-0.6-5.7-0.6-11.5,0-17.3V153l-7-6.6c0,0-8.7,0.7-10.3,0c-2.1,4.2,0.8,49.6-3.6,51.9
			c-3.1,1.6-6.7,2.2-10.1,1.8c-3.5,2.2-8.3,3.2-12.2,4.3c-2.4,0.7-4.8,1.5-7.2,2.2c-0.1,0-0.8,0.2-1.3,0.4l-0.5,0.2l-0.6,0.3
			c-1.1,0.2-2.1,0.4-3.2,0.4c-8,1-15.7-0.9-23.2-3.4c-3.2-1.2-6.5-2.2-9.9-2.9c-1.7-0.2-3.4,0-5,0.5c-5.9,2.5-13,6.6-20.9,6.4
			c-8.7-0.4-17.2-3-24.6-7.7c-5.6-3.3-10.9-7.1-16.7-10.1c-0.5-0.3-3.4-1.5-3-1.4c-1.1-0.4-2.2-0.7-3.3-1c-2.9-0.8-5.9-1.2-8.9-1.2
			c-2.4-0.1-4.7-0.8-6.8-2.1c-3.2-0.3-6.4-0.8-9.7,0c-6.5,1.8-13.2,2.9-20,3.3c-14.5,0.7-28.4-4-42.8-2.7
			c-7.3,0.7-14.5,2.2-21.8,3.1c-6.8,0.7-13.7,1.1-20.5,1c-5.3,0.1-10.5-0.2-15.4-2.3c-2.2-1-4.3-2.4-6-4.1c-1.8,0.4-3.7,0.5-5.6,0.3
			c-6.8-0.5-13-3.2-19.7-4c-2.2-0.2-4.3-1.1-6-2.5c-1-0.4-2-0.8-3-1.1c-1.4-0.5-2.7-1.1-4.1-1.6l-2.6-1l-1.1-0.4l-0.4-0.2l-3-1
			l2.5,1c-1.2-0.5-2.3-1-3.4-1.6c-1.2,1.3-3,1.7-4.6,1c-0.5-0.2-1-0.3-1.4-0.4l-15.5,4.4l-3.2-3.4c-3-0.2-5.9-1-8.5-2.4
			c-6.7-3.7-9-11.6-16-14.8c-2.6-1.2-7.1-3.8-7.1-3.8l-0.7-0.1v-0.6c-1.2-1.4,1-5.1,1-5.1s-1.7-6.2-1-9.1V99.7
			c0,0-3.6-13.2-2.8-20.5l-3.9-0.6l-6.7,10.8c0.5,0.9,0.6,1.9,0.5,2.9c-1,6.1-1.1,12.3-2.1,18.6c-0.1,0.7-0.5,1.4-1,1.9v0.3
			l-0.2-0.1c-1.6,1.4-4,1.6-5.9,0.6c-4.7-2.9-9.7-10.5-9.7-10.5l-0.9-0.5v-1.3L343.4,71c0,0-0.4-13.4,0.5-20.2V21.4
			c-0.7-2.7-1.6-5.3-2.5-8c-0.6-2.1-1.5-4.2-2.5-6.2c-0.1-0.1-0.1-0.3-0.2-0.4c-0.1,0-0.2,0-0.4,0c1.4,0.2-2,0-2.2,0
			c-1.8,0,0,14.8-1.3,14l-3.4,39.9c0,0-10.4,7.2-10.4-1V37.3l-2.4-1.5c-0.4,0.3-0.9,0.6-1.4,0.8c-2.4,1-4.9,2-7.3,2.9l-0.2,0.1
			c0,1,0,2,0,3c0.2,4.1-2.9,7.2-6.7,8.3l-0.2,1.7v13.5l-0.2,0.1c-0.1,0.6-0.2,1.2-0.4,1.7c-0.6,1.9-1.2,3.7-1.9,5.6
			c-2,15.1-3.1,45.6-3.1,45.6s-0.6,2.6-1.5,3.4c0,5-1,10-3.2,14.6c-4,8.3-12.7,12.3-21.4,15.2c-1.1,2.2-3,3.9-5.4,4.5
			c-3.1,1-6.2,2-9.3,3.1l-0.9,0.6c-0.3,0.1-0.7,0.1-1.1,0.1c-3.3,2.7-7.8,3.9-12.5,4.2c-8.5,2.7-17.2,4.7-26.5,4.8
			c-18.7,0.1-37.1-5-55.8-3.7c-9.2,0.6-18.4,2.4-27.6,3.6c-9.1,1.3-18.3,1.1-27.4-0.5c-16.3-3-32.7-4.9-48.5-9.7
			c-20.8-0.2-40.2-0.2-56.1-0.2V630h1600V159.4C1584.3,159.4,1564.7,159.7,1542.9,160z"/>
	</g>
</g>
</svg>
