<?xml version="1.0" encoding="utf-8"?>
<!-- Generator: Adobe Illustrator 21.1.0, SVG Export Plug-In . SVG Version: 6.00 Build 0)  -->
<svg version="1.1" id="Layer_1" xmlns="http://www.w3.org/2000/svg" xmlns:xlink="http://www.w3.org/1999/xlink" x="0px" y="0px"
	 viewBox="0 0 1600 620" style="enable-background:new 0 0 1600 620;" xml:space="preserve" preserveAspectRatio="xMinYMax slice">
<style type="text/css">
	.st0{fill:#A2CEDF;}
</style>
<title>4</title>
<g id="Layer_2">
	<g id="horizon">
		<path class="st0" d="M1585.4,175c-3.7,0.5-7.3,0.5-11,0.1c-10.1-1.1-18.5-5.7-27.4-10c-3.3-1.6-6.9-3.3-9-6.3
			c-1-1.6-1.8-3.3-2.3-5.1c-0.8-1-1.6-2-2.3-3c-1.4-0.6-2.5-1.8-3-3.2c-0.4-1.2-2.9-2.1-4.1-2.7c-1.8-0.9-3.6-2.1-5.1-3.5
			c-0.2-0.2-0.3-0.3-0.5-0.5c-1.9-0.8-3.1-2.6-3.1-4.6c0-0.4,0-0.7-0.1-1.1c-0.5-1.4-1-2.8-1.5-4.2c-2.1-1.4-3.8-3.2-4.9-5.4
			c-2.8,1-6.3,0.1-7.4-3.4c-0.8-2.8-1.3-5.7-1.4-8.7c-2-1.8-3.9-3.7-5.7-5.7c-3.8-0.8-7.6-1-11.5-0.7c-1.5,0.2-3-0.4-4.1-1.5h-0.8
			c-1.9,1-4.3,1-6.2,0h-1.6c0-0.5-0.1-1-0.1-1.5c-0.6-0.8-0.9-1.8-1-2.8s-0.1-1.9-0.2-2.9c-0.3-0.8-0.7-1.6-1.1-2.3
			c-0.3-2.8-0.8-5.6-1.6-8.2c-0.1-2.5-0.9-4.9-2.4-7c-0.2-0.3-0.5-0.5-0.8-0.7c-1.3,0-2.6-0.1-3.9-0.3c0,0.2,0,0.3,0.1,0.5
			c0.7,2.8-0.9,5.7-3.8,6.5h-0.1c0.1,0.4,0.2,0.8,0.4,1.2c-0.4-0.1-0.8-0.2-1.3-0.3c-0.9-0.2-1.9-0.3-2.8-0.3
			c-0.9,0.2-1.9,0.4-2.8,0.7c-1.1,2-2.3,4-3.7,5.8c-2,2.4-5.3,3.1-6,6.2c-0.8,3.5-0.2,6.9-2.1,10.2c-1.6,2.6-4,4.7-6.8,5.9
			c-6,2.6-12.8,2.2-19.2,3.2c-2.4,0.4-5.8,1.1-7.6,2.8c-2,1.8-2.4,5.1-3,7.5c-1.2,4.4-6.1,4.6-9,2.5c-0.6,1-1.6,1.8-2.7,2.1
			c-0.1,1.1-0.1,2.3-0.2,3.4c-1.2,0.6-2.6,1-3.9,1.1c-0.7,0.8-1.7,1.3-2.7,1.6c-7.4,2.1-14.9,3.7-22.5,4.8
			c-2.7,3.8-5.6,7.4-8.7,10.8c-5.4,5.8-12,7.9-19.4,9.6c-0.9,0.6-2,0.9-3.1,0.9h-1.6c-1.1,0-2.1-0.3-3-0.9c-3.2,1.1-6.5,1.9-9.8,2.4
			c-10.6,1.9-21.7,2.4-32.5,3.3c-11.9,1-23.9,2.1-35.8,2.8c-10.6,0.6-20.2-2.6-30.6-4.2c-5.1,0-10.2,0.1-15.3,0.6
			c-8.8,0.8-16.8,3.5-25.1,6.4c-7.8,2.8-15.8,4.8-24,6.1c-3,1.6-6,2.9-9.2,4h-17.1c-1.4-0.6-2.9-1-4.5-1c-6.3,0.3-12.7,0.2-19-0.4
			c-7.3-0.7-14.6-2-21.7-4.1c-2.1-0.6-4.2-1.3-6.3-1.9c-2.6-0.1-5.2-0.7-7.6-1.7c-0.4-0.2-0.7-0.4-1.1-0.6c-1.9-0.4-3.9-0.8-5.9-1.1
			c-3.7-0.5-7.4-0.8-11.2-1c-0.2-1.3-0.3-2.5-0.5-3.8c-0.4-0.5-0.7-1.1-1-1.7c-0.6-1.2-0.6-2.4-1-3.6c-0.7-2-2.4-3.6-3.7-5.3
			c-1.1-1.4-2-2.8-2.7-4.4c-2.1-0.4-3.9-1.9-4.6-3.9c-0.4-0.9-0.7-1.8-1-2.8l-5.4,1.4c-1.4,3.7-1.8,7.7-1.1,11.6
			c0.6,2.4-0.5,4.9-2.8,6.1c-0.1,1.6-0.3,3.1-0.7,4.7c-2.8-1.1-5.9-1.7-8.9-1.8c-2.6-0.1-5.4,0.1-8,0.1c-0.9,0.7-2,1.1-3.2,1.2
			c-5.9,0.6-12.6,0.1-16.2-4.9c-1.6-2.4-2.5-5.2-2.6-8.1c-0.8-0.9-1.5-1.8-2.1-2.8c-2.1-2.1-3.5-4.7-4.2-7.6
			c-0.1-0.3-0.1-0.6-0.2-0.9c-0.5-0.7-1.2-1.5-1.9-2.3c-2.3-2.6-3.8-5.7-4.3-9.1c-1.4-6.9-2.5-13.8-3.1-20.8
			c-2.8,0.3-5.7,0.5-8.5,0.7c-0.4,3.8-1.3,7.6-1.4,11.5c0,0.8-0.2,1.6-0.6,2.3c0.5,2.8-1.4,4.8-3.7,5.5c-0.1,0.3-0.2,0.7-0.2,1
			c-3,0.1-6,0.7-8.8,1.9c-0.1,0.8-0.3,1.5-0.7,2.2c-0.8,1.4-2,2.6-3.4,3.3c-0.3,0.2-1.6,1.3-1.5,1c-0.7,1.2-1.2,2.7-1.8,3.8
			c-0.5,0.8-1,1.6-1.6,2.4c0,0.5,0,1.1,0,1.6c0,1.8,1,7.8-0.1,9.2c-0.1,0.1-0.2,0.3-0.3,0.4c0,0-0.2,0-0.7,0.2
			c-0.7,0.3-1.7-1.5-1.3-0.3c-0.8-2.3-2.6-4-4.9-4.8c-4.7,2.6-10.2,4.1-15.6,5.4c-5,1.2-4,2.4-4.9,6.3c-0.7,2.5-2.4,4.7-4.7,6
			c-0.1,0.4-0.2,0.8-0.3,1.3c-0.3,0.9-0.7,1.8-1.3,2.5c-4-0.2-8-0.2-12,0c-6.5,0.6-13.4,1.1-17.4,6c-2.7,3.3-6.7,1.7-8.3-1.2
			c-4.2,1.3-8.5,2.4-12.8,3.3l-37.3,0.1c-5.3-0.4-10.5-0.8-15.7-0.9h-0.3c-1,0.7-2.3,1-3.5,0.8c-6.1-0.8-12.3-0.1-18.5,0
			c-0.3,2.8-2.7,5-5.5,5c-3.5,0-7.1,0.6-10.5,0c-3.7-0.7-6.8-2.9-10-4.7c-6.4-3.7-12.3-5.9-19.9-5.5c-5.8,0.3-14.2,1-20.8-0.9
			c-4.1,0.8-8.2,1.8-12.4,2.4c-0.2-0.2-0.5-0.4-0.7-0.6l-15.5-13v-19.3l-5.1-2.3H672v18.6l-3,7.5l-8.1-6.9l-4.2-6.9V158l-2.4-8.6
			l2.4-8.9l-13.2-10.1v-24.6h-7.2l-6,2.3l-7.2,4.9v20l-2.2,12.3l-2.4,8.6l-6.9,3l-2.1-9.6V141l-4.2-2.3l-5.1,5.7v7.5l-5.7,6.3v7.2
			l-15.5,5l-6.1,0.3c-1.7,2.1-4.6,2.7-7,1.6c-1.1-0.5-2.2-0.9-3.3-1.2h-0.5c-6,0-12.1-0.3-18.1-1c-4.7,0.4-9.5,1-14,0.9
			c-11.5-0.1-23-1.5-34.6-1.2c-5.6,0.1-11.9,0.3-17.2,2.3c-4.2,1.6-7.8,4.5-12.4,5.3c-6.9,1.3-14-1.4-20.7-4.3
			c-5.8,0-11.5-0.2-17.3-0.6c-8.9-0.6-17.7-1.6-26.6-1.6c-8.5,0-17,1-25.5,2c-10.8,1.1-21.6,1.4-32.4,1c-6.3-1.6-12-4.9-18.1-6.9
			c-8.9-2.8-18.6-3.4-27.9-3.6c-18.6-0.3-37.1-0.9-55.7,0.5c-18.4,1.4-36.6,4.7-55,6c-15.4,1-30.7,0-46.1-0.3
			c-0.7-0.1-1.4-0.1-2-0.2l-1.1-0.1c-0.4,0.2-0.8,0.3-1.2,0.3c-15.2,2.2-30.3,4.8-45.6,6.2c-8.6,0.7-17.3,1-26,0.7
			c-5.5,1-11,1.3-16.5,1.1c-3.7-0.2-7.4-0.7-11-1.5c-5.9-0.1-11.7-0.5-17.5-1.3c-1-0.1-1.9-0.3-2.8-0.6c-1.4,1.1-2.8,1.8-4,0.8
			c-2.6,1.8-12.6-5-12.8-5v450h1600V170.2C1595.1,170.3,1590.2,175.6,1585.4,175z"/>
	</g>
</g>
</svg>
