<svg xmlns="http://www.w3.org/2000/svg" xmlns:xlink="http://www.w3.org/1999/xlink" viewBox="0 0 257.42 37.96"><defs><mask id="mask" x="0" y="8.03" width="17.69" height="22.01" maskUnits="userSpaceOnUse"><g id="mask-2"><polygon id="path-1" points="0 8.03 0 30.04 17.69 30.04 17.69 8.03 0 8.03" fill="#fff"/></g></mask><mask id="mask-2-2" x="242.43" y="0" width="14.99" height="8.89" maskUnits="userSpaceOnUse"><g id="mask-4"><polygon id="path-3" points="257.42 0 242.43 0 242.43 8.89 257.42 8.89 257.42 0" fill="#fff"/></g></mask></defs><title>ctct_logo_white_lg</title><g id="Layer_2" data-name="Layer 2"><g id="logo"><g id="coupon-claim-from-inbox"><g id="coupon-doesn_t-exist-page" data-name="coupon-doesn&apos;t-exist-page"><g id="ctct_logo_grey" data-name="ctct_logo+grey"><path id="Fill-1" d="M20.89,26.75c-1.63,0-2.68-1.28-2.68-3.27,0-2.61,1.53-6.39,4.29-6.39,2.49,0,2.62,2.67,2.62,3.2,0,3-1.81,6.45-4.23,6.45m6.83-11a6.27,6.27,0,0,0-4.8-2,8.48,8.48,0,0,0-6.45,2.93A10.3,10.3,0,0,0,14,23.57,6.09,6.09,0,0,0,20.4,30a8.54,8.54,0,0,0,6.47-2.92,10.23,10.23,0,0,0,2.5-6.82,6.7,6.7,0,0,0-1.64-4.54" fill="#fff"/><g id="Group-5"><g mask="url(#mask)"><path id="Fill-3" d="M13.56,26.19a.25.25,0,0,0-.32-.19,11.14,11.14,0,0,1-3.19.45c-3.59,0-5.65-2.14-5.65-5.86a9.33,9.33,0,0,1,2.91-7.07,7.92,7.92,0,0,1,5.15-1.85,8.71,8.71,0,0,1,3.8.71.26.26,0,0,0,.21,0,.25.25,0,0,0,.15-.15l1.05-2.91a.25.25,0,0,0-.1-.29,9.39,9.39,0,0,0-4.68-1A12.76,12.76,0,0,0,5,10.55,12.82,12.82,0,0,0,0,21a9,9,0,0,0,2.49,6.6A9.2,9.2,0,0,0,9.12,30a14,14,0,0,0,5.54-1,.26.26,0,0,0,.14-.17.26.26,0,0,0,0-.22,6.8,6.8,0,0,1-1.19-2.48" fill="#fff"/></g></g><path id="Fill-6" d="M39.92,13.8a6.57,6.57,0,0,0-5.12,2.51L35,14.43a.25.25,0,0,0-.06-.2.25.25,0,0,0-.19-.09H31.58a.26.26,0,0,0-.25.22l0,.28c-.17,1.21-.39,2.71-.73,4.38L28.61,29.4a.25.25,0,0,0,.25.3h3.58a.26.26,0,0,0,.25-.21l1.3-7c.61-3.31,2.58-5.29,4.14-5.29,1.11,0,1.63.61,1.63,1.91a11.21,11.21,0,0,1-.18,1.74L38,29.4a.24.24,0,0,0,.05.21.25.25,0,0,0,.2.09H41.8a.25.25,0,0,0,.25-.21l1.67-8.74A14.73,14.73,0,0,0,44,18.2c0-2.71-1.56-4.4-4.09-4.4" fill="#fff"/><path id="Fill-8" d="M127.16,26.75c-1.63,0-2.68-1.28-2.68-3.27,0-2.61,1.53-6.39,4.29-6.39,2.49,0,2.62,2.67,2.62,3.2,0,3-1.8,6.45-4.22,6.45m6.83-11a6.27,6.27,0,0,0-4.8-2,8.49,8.49,0,0,0-6.46,2.93,10.32,10.32,0,0,0-2.48,6.83,6.09,6.09,0,0,0,6.4,6.47,8.54,8.54,0,0,0,6.47-2.92,10.24,10.24,0,0,0,2.5-6.82A6.7,6.7,0,0,0,134,15.76" fill="#fff"/><path id="Fill-10" d="M119.7,26.19a.25.25,0,0,0-.12-.17.24.24,0,0,0-.2,0,11.14,11.14,0,0,1-3.19.45c-3.59,0-5.65-2.14-5.65-5.86a9.33,9.33,0,0,1,2.91-7.07,7.93,7.93,0,0,1,5.15-1.85,8.69,8.69,0,0,1,3.8.71.27.27,0,0,0,.21,0,.26.26,0,0,0,.15-.15l1-2.91a.25.25,0,0,0-.09-.29A9.41,9.41,0,0,0,119,8a12.55,12.55,0,0,0-12.89,13,9,9,0,0,0,2.48,6.6A9.21,9.21,0,0,0,115.26,30a14,14,0,0,0,5.54-1,.26.26,0,0,0,.15-.17.26.26,0,0,0,0-.22,6.76,6.76,0,0,1-1.19-2.48" fill="#fff"/><path id="Fill-12" d="M146.31,13.8a6.58,6.58,0,0,0-5.12,2.51l.21-1.89a.25.25,0,0,0-.06-.2.26.26,0,0,0-.19-.09H138a.25.25,0,0,0-.25.22l0,.28c-.17,1.21-.39,2.71-.73,4.38L135,29.4a.26.26,0,0,0,.05.21.25.25,0,0,0,.19.09h3.59a.25.25,0,0,0,.25-.21l1.3-7c.61-3.31,2.58-5.29,4.14-5.29,1.11,0,1.63.61,1.63,1.91A10.9,10.9,0,0,1,146,20.9l-1.6,8.49a.25.25,0,0,0,.05.21.25.25,0,0,0,.2.09h3.58a.25.25,0,0,0,.25-.21l1.67-8.74a14.73,14.73,0,0,0,.28-2.55c0-2.71-1.57-4.4-4.09-4.4" fill="#fff"/><path id="Fill-14" d="M72.3,17.1a6.54,6.54,0,0,1,1.18.1l-.75,3.71c-.69,3.72-2.66,5.72-4.17,5.72-1.66,0-1.91-1.64-1.91-2.62C66.66,20.74,69.07,17.1,72.3,17.1Zm5.75-2.31a.26.26,0,0,0-.17-.29,16.31,16.31,0,0,0-4.62-.69,10.42,10.42,0,0,0-8.12,3.46,11.28,11.28,0,0,0-2.73,7.39c0,3.22,1.89,5.38,4.71,5.38A6,6,0,0,0,72.24,27c-.09.92-.16,1.78-.19,2.46a.26.26,0,0,0,.25.26h3.34a.26.26,0,0,0,.26-.26s0,0,0,0a34.77,34.77,0,0,1,.61-6.77Z" fill="#fff"/><path id="Fill-16" d="M88.39,13.8a6.57,6.57,0,0,0-5.12,2.51l.21-1.89a.25.25,0,0,0-.06-.2.25.25,0,0,0-.19-.09H80.05a.25.25,0,0,0-.25.22l0,.25c-.17,1.22-.39,2.73-.73,4.4L77.08,29.4a.26.26,0,0,0,.06.21.25.25,0,0,0,.2.09h3.58a.25.25,0,0,0,.25-.21l1.3-7c.61-3.31,2.58-5.29,4.13-5.29,1.11,0,1.63.61,1.63,1.91A11.32,11.32,0,0,1,88,20.9L86.44,29.4a.26.26,0,0,0,.25.3h3.59a.25.25,0,0,0,.25-.21l1.67-8.74a14.94,14.94,0,0,0,.28-2.55c0-2.71-1.56-4.4-4.08-4.4" fill="#fff"/><path id="Fill-18" d="M186.39,14.41a8.47,8.47,0,0,0-3.16-.61,9.69,9.69,0,0,0-7.07,3,10,10,0,0,0-2.76,7c0,3.82,2.49,6.28,6.34,6.28a10.2,10.2,0,0,0,4.44-.89.26.26,0,0,0,.14-.24l-.12-2.78a.25.25,0,0,0-.12-.2.26.26,0,0,0-.24,0,7.46,7.46,0,0,1-3.11.69c-1.91,0-3-1.22-3-3.27,0-2.92,2.07-6.08,5.43-6.08a5.12,5.12,0,0,1,2.15.44.26.26,0,0,0,.21,0,.25.25,0,0,0,.14-.15l.93-2.81a.26.26,0,0,0-.14-.32" fill="#fff"/><path id="Fill-20" d="M54.7,14.61A7.68,7.68,0,0,0,51,13.8a7.19,7.19,0,0,0-4.54,1.44A4.75,4.75,0,0,0,44.67,19c0,1.65,1,3,3.1,4.15,1.55.81,1.84,1.34,1.84,2.09,0,.92-.85,1.57-2.06,1.6a7.9,7.9,0,0,1-3.45-1,.26.26,0,0,0-.23,0,.25.25,0,0,0-.14.18l-.54,2.84a.25.25,0,0,0,.13.27,9.1,9.1,0,0,0,3.89.88,7.67,7.67,0,0,0,4.71-1.4,4.87,4.87,0,0,0,1.94-4c0-2.24-1.85-3.51-3.26-4.27s-1.81-1.18-1.81-1.85c0-.88.83-1.5,2-1.5a5.73,5.73,0,0,1,2.69.65.24.24,0,0,0,.21,0,.24.24,0,0,0,.15-.15l.93-2.59a.25.25,0,0,0-.11-.31" fill="#fff"/><path id="Fill-22" d="M61.53,26.71a.25.25,0,0,0-.26-.24H61c-.74,0-1.07-.34-1.07-1.11a12.43,12.43,0,0,1,.24-2.05l1.06-5.37h2.36a.25.25,0,0,0,.24-.17l1-2.78a.26.26,0,0,0,0-.23.27.27,0,0,0-.21-.11H61.9l.78-4.07a.25.25,0,0,0-.32-.29l-3.74,1.08a.26.26,0,0,0-.18.2l-.59,3.08H56a.26.26,0,0,0-.24.17l-1,2.78a.26.26,0,0,0,0,.23.26.26,0,0,0,.21.11h2.16L56.1,23.83a12.57,12.57,0,0,0-.34,2.84c0,1.63,1,3.37,3.84,3.37A8.47,8.47,0,0,0,62,29.72a.26.26,0,0,0,.17-.21v-.09a.27.27,0,0,0,0-.15,5.65,5.65,0,0,1-.65-2.55" fill="#fff"/><path id="Fill-24" d="M196.52,14.76a.26.26,0,0,0-.21-.11h-2.68l.78-4.07a.26.26,0,0,0-.08-.24l-.06,0a.25.25,0,0,0-.18,0l-3.74,1.08a.26.26,0,0,0-.18.2l-.59,3.08h-1.83a.26.26,0,0,0-.24.17l-1,2.78a.27.27,0,0,0,0,.23.26.26,0,0,0,.21.11H189l-1.14,5.88a12.5,12.5,0,0,0-.34,2.84c0,1.63,1,3.37,3.84,3.37a8.48,8.48,0,0,0,2.44-.32.26.26,0,0,0,.17-.21l.34-2.84a.25.25,0,0,0-.08-.21.24.24,0,0,0-.22-.07,7.39,7.39,0,0,1-1,.09h-.24c-.74,0-1.07-.34-1.07-1.11a12.28,12.28,0,0,1,.24-2.05L193,17.94h2.35a.26.26,0,0,0,.24-.17l1-2.78a.26.26,0,0,0,0-.23" fill="#fff"/><path id="Fill-26" d="M168.24,17.1a6.55,6.55,0,0,1,1.18.1l-.76,3.71c-.69,3.72-2.66,5.72-4.17,5.72-1.66,0-1.91-1.64-1.91-2.62C162.6,20.74,165,17.1,168.24,17.1ZM174,14.79a.25.25,0,0,0-.17-.29,16.3,16.3,0,0,0-4.62-.69,10.42,10.42,0,0,0-8.12,3.46,11.3,11.3,0,0,0-2.73,7.39c0,3.22,1.89,5.38,4.7,5.38A6,6,0,0,0,168.17,27c-.09.92-.16,1.78-.19,2.46a.26.26,0,0,0,.26.26h3.34a.26.26,0,0,0,.26-.26.38.38,0,0,0,0,0,34.89,34.89,0,0,1,.62-6.77Z" fill="#fff"/><path id="Fill-28" d="M157.17,26.71a.25.25,0,0,0-.26-.24h-.22c-.74,0-1.07-.34-1.07-1.11a12.47,12.47,0,0,1,.24-2.05l1.06-5.37h2.35a.26.26,0,0,0,.24-.17l1-2.78a.26.26,0,0,0,0-.23.25.25,0,0,0-.21-.11h-2.69l.78-4.07a.26.26,0,0,0-.08-.24.25.25,0,0,0-.24-.06l-3.74,1.08a.27.27,0,0,0-.18.2l-.59,3.08H151a.25.25,0,0,0-.22.13.26.26,0,0,0,0,.26,4.86,4.86,0,0,1,.5,2.63.26.26,0,0,0,.07.19.25.25,0,0,0,.19.08h1.34l-1.13,5.88a12.45,12.45,0,0,0-.35,2.84c0,1.63,1,3.37,3.84,3.37a8.43,8.43,0,0,0,2.43-.32.26.26,0,0,0,.17-.21v-.09a.23.23,0,0,0,0-.15,5.72,5.72,0,0,1-.65-2.55" fill="#fff"/><path id="Fill-30" d="M200.65,9.17c0-.32-.3-.42-.67-.42h-.26V9.6H200C200.36,9.6,200.63,9.53,200.65,9.17Zm.68,2h-.72L200.08,10h-.37v1.14h-.64V8.36h1.07c.52,0,1.17.14,1.18.77a.76.76,0,0,1-.62.76Zm.89-1.31a2.1,2.1,0,0,0-2.1-2.16A2.15,2.15,0,0,0,198,9.79a2.11,2.11,0,0,0,4.23,0Zm.37,0a2.54,2.54,0,0,1-2.49,2.51,2.5,2.5,0,0,1-2.48-2.51,2.45,2.45,0,0,1,2.48-2.54A2.5,2.5,0,0,1,202.59,9.81Z" fill="#fff"/><path id="Fill-32" d="M102.37,14.76a.26.26,0,0,0-.21-.11H99.48l.79-4.07a.25.25,0,0,0-.08-.24.25.25,0,0,0-.24-.06L96.2,11.37a.26.26,0,0,0-.18.2l-.59,3.08h-2.5a.26.26,0,0,0-.22.39,4.85,4.85,0,0,1,.5,2.63.26.26,0,0,0,.25.28h1.34l-1.14,5.88c-.06.26-.11.5-.15.74a11.6,11.6,0,0,0-.2,2.1c0,1.63,1,3.37,3.84,3.37a8.45,8.45,0,0,0,2.44-.32.25.25,0,0,0,.17-.21l.34-2.84a.26.26,0,0,0-.29-.28,7.41,7.41,0,0,1-1,.09h-.24c-.74,0-1.07-.34-1.07-1.11a12.28,12.28,0,0,1,.24-2.05l.82-4.15h0l.24-1.22h2.36a.25.25,0,0,0,.24-.17l1-2.78a.26.26,0,0,0,0-.23" fill="#fff"/><path id="Fill-34" d="M228.37,19.43a67.86,67.86,0,0,1,6.85-1.37c1-.14,2-.27,3-.37a69.08,69.08,0,0,1,2.32-7.3l-.31.06a69.9,69.9,0,0,0-9.32,2.43,68.17,68.17,0,0,0-2.56,6.55" fill="#fff"/><path id="Fill-36" d="M220.24,16.15c1-2,2.1-4,3.28-5.94-1.81,1-3.61,2.16-5.36,3.33a70.2,70.2,0,0,0-3.72,6c1.88-1.22,3.83-2.35,5.79-3.37" fill="#fff"/><path id="Fill-38" d="M227,19.79c.68-2.14,1.49-4.28,2.39-6.38A70.17,70.17,0,0,0,221.12,17c-.91,1.88-1.74,3.8-2.46,5.73a63.77,63.77,0,0,1,8.36-3" fill="#fff"/><path id="Fill-40" d="M240.07,9.29l1-.18a71.56,71.56,0,0,1,3.43-7.28,75.52,75.52,0,0,0-9.16,2.82,71.24,71.24,0,0,0-3.73,6.78,70.89,70.89,0,0,1,8.46-2.13" fill="#fff"/><path id="Fill-42" d="M209.29,27.87c.59-1.57,1.26-3.15,2-4.71-1.25.93-2.47,1.89-3.63,2.88-1.06,1.71-2,3.46-2.93,5.23,1.46-1.2,3-2.34,4.57-3.39" fill="#fff"/><path id="Fill-44" d="M217.16,23.43c.65-1.84,1.4-3.68,2.23-5.49a71,71,0,0,0-6.11,3.78c-.84,1.66-1.62,3.36-2.31,5.06a60.32,60.32,0,0,1,6.19-3.35" fill="#fff"/><path id="Fill-46" d="M239.48,17.57a68.23,68.23,0,0,1,10.94-.06c.83-2.9,1.7-5.65,2.67-8.23h-.48a67,67,0,0,0-10.7.88,67.2,67.2,0,0,0-2.43,7.41" fill="#fff"/><g id="Group-50"><g mask="url(#mask-2-2)"><path id="Fill-48" d="M252.61,8.1h.94A61.42,61.42,0,0,1,257.42,0,66.93,66.93,0,0,0,246,1.47a71,71,0,0,0-3.6,7.41,67.87,67.87,0,0,1,10.18-.79" fill="#fff"/></g></g><path id="Fill-51" d="M226.29,27.4c1.36-.23,2.73-.42,4.08-.57,2-.22,4.15-.35,6.27-.38a59.86,59.86,0,0,1,1.31-7.55c-.86.09-1.73.2-2.58.33a65.63,65.63,0,0,0-7.41,1.53,61.72,61.72,0,0,0-1.66,6.64" fill="#fff"/><path id="Fill-53" d="M207.29,34.19c.37-1.45.81-2.93,1.32-4.43a57.63,57.63,0,0,0-5.13,4.11c-.61,1.38-1.17,2.75-1.64,4.08a47.36,47.36,0,0,1,5.45-3.76" fill="#fff"/><path id="Fill-55" d="M225.05,27.62a62.08,62.08,0,0,1,1.55-6.49,61.92,61.92,0,0,0-8.51,3.16c-.66,1.89-1.22,3.79-1.66,5.64a59.72,59.72,0,0,1,8.61-2.31" fill="#fff"/></g></g></g></g></g></svg>