<svg xmlns="http://www.w3.org/2000/svg" viewBox="0 0 255.47 242.61"><title>doge_happy_2</title><g id="Layer_2" data-name="Layer 2"><g id="doge_final" data-name="doge final"><ellipse cx="139.43" cy="232.72" rx="115.22" ry="9.89" fill="#e6e7e8"/><path d="M131.89,77.21" fill="none" stroke="#61a7d5" stroke-linecap="round" stroke-linejoin="round" stroke-width="1.65"/><path d="M31.65,116.3s-8.37,3.12-7.48,16c1.52,21.89,12.58,98.12,21.94,99.7,8.7,1.47,4.38-40.26,11.81-55a53.31,53.31,0,0,0,5.26-29.07" fill="#fdeac7"/><path d="M51.27,218.52a8.37,8.37,0,0,1-3.25.56,26,26,0,0,0-8.17,2.53c2.09,6.11,4.21,10,6.25,10.35,3.4.57,4.81-5.45,5.71-13.88A2.32,2.32,0,0,1,51.27,218.52Z" fill="#f8f8f7"/><path d="M31.65,116.3s-8.37,3.12-7.48,16c1.52,21.89,12.58,98.12,21.94,99.7,8.7,1.47,4.38-40.26,11.81-55a53.31,53.31,0,0,0,5.26-29.07" fill="none" stroke="#9b8579" stroke-linecap="round" stroke-linejoin="round" stroke-width="1.65"/><path d="M124.3,79.27s50.58,58.26,63.72,90c10.87,26.26,8,44.29-1.84,55.38-3.47,3.94-8.56,7.23-13.81,7.23,0,0-71.77.42-76.26-.42-2.72-.51-2-3.92-1-6.54a7,7,0,0,1,3.14-3.79c2-1.11,4.53-2,2.64-4.54-2.58-3.45-7.84-3.3-10.32-7.24-1.83-2.91-1.76-6.88-1-10.11.18-.74-6.27-4.91-7.07-5.48-2.42-1.74-4.89-3.39-7.4-5-10.84-7-22.15-12.25-33.5-18.25-14-7.39-24.13-20.38-24.12-36.51,0-12.57,4.89-28,4.89-28S86.14,66,124.3,79.27Z" fill="#fdeac7"/><path d="M22.36,106" fill="none" stroke="#61a7d5" stroke-linecap="round" stroke-linejoin="round" stroke-width="1.65"/><path d="M186.18,223s23.93-17.33,36.61-17.83,32.41-24.64,31.84-53.9l-4.54,3.52S235,121.93,221,110.73s-28,2.52-28,2.52-10.76,10.31-18.83,28.26" fill="#fdeac7"/><path d="M187.54,223c7.43-5.33,14-10.28,22.43-13.92,7.75-3.35,16.69-3.86,23.77-8.77,6.81-4.71,11.74-13.23,15.06-20.66a66.67,66.67,0,0,0,5.83-28.38l-4.54,3.52c-2.35-5.12-5-10.12-7.73-15-4.91-8.81-10.35-18.42-17.46-25.65-3.52-3.58-7.92-6.48-12.86-7.37-18.61-3.33-31.69,22.51-37.93,36.39" fill="none" stroke="#9b8579" stroke-linecap="round" stroke-linejoin="round" stroke-width="1.65"/><path d="M62.9,160.86c.1-.37.21-.74.31-1.11A51.19,51.19,0,0,0,64.54,152C63.93,154.71,63.3,157.78,62.9,160.86Z" fill="#f8f8f7"/><path d="M78.89,116.3c-2.51.26-7.47.45-8.34-1.48-.94.1-2.45,3-3.4,3A99.08,99.08,0,0,1,47.06,116c-5.29-1-15.37-3-20-8-5,14.71-3.44,32.6,4.56,45.8,3.74,6.16,10.47,11.5,16.33,15.68,2.63,1.88,10.73,8.66,11.27,1.92.49-6.12-1.72-11.35-2.08-18.09-.34-6.46,2-12.73,4.82-18.61a29.17,29.17,0,0,1,10.41-12.06,22.4,22.4,0,0,1,5.16-2.22C76.76,120.52,79.72,116.21,78.89,116.3Z" fill="#f8f8f7"/><path d="M106.33,226.16c-.38-1-2.29-1.06-3.4-1.46a1.9,1.9,0,0,1-1.12-2.76c.08-.12.91-1.19.83-1.44s-.38,0-1.07-.07a1.77,1.77,0,0,1-1.18-.49,24.35,24.35,0,0,1-2.18,1.23,7,7,0,0,0-3.14,3.79c-1,2.62-1.68,6,1,6.54.8.15,3.77.26,8.08.34C104.74,230.22,106.9,227.63,106.33,226.16Z" fill="#f8f8f7"/><path d="M132.38,230.84a1.48,1.48,0,0,0-.15-.57c-1.12-2.27-6.57-2-8.66-3.49a2,2,0,0,1-.88-2c-.11-.11-.23-.2-.33-.32a2,2,0,0,1,0-2.66,6.43,6.43,0,0,0,.52-.67c-.93.25-1.85.57-2.41.72a1.9,1.9,0,0,1-.86,0c-3.31,1.21-5.57,2.93-6.05,5.72a17.74,17.74,0,0,1-.05,2.12,11.59,11.59,0,0,0,.42,2,1.83,1.83,0,0,1,0,.26c5.41,0,11.56.06,17.81.07a1.94,1.94,0,0,0,.4-.44A4.94,4.94,0,0,1,132.38,230.84Z" fill="#f8f8f7"/><path d="M142.6,231.91s-22.16.42-26.65-.42c-2.72-.51-2.08-3.95-1-6.54,2.16-5.37,7.43-5.26,6.39-11.36-.49-2.92-2.57-3-4.89-3.8a15.52,15.52,0,0,1-7.68-6.08c-5.47-8.36-2.07-18.5,3.56-27.13" fill="none" stroke="#9b8579" stroke-linecap="round" stroke-linejoin="round" stroke-width="1.65"/><path d="M124.3,79.27s50.58,58.26,63.72,90c10.87,26.26,8,44.29-1.84,55.38-3.47,3.94-8.56,7.23-13.81,7.23,0,0-71.77.42-76.26-.42-2.72-.51-2-3.92-1-6.54a7,7,0,0,1,3.14-3.79c2-1.11,4.53-2,2.64-4.54-2.58-3.45-7.84-3.3-10.32-7.24-1.83-2.91-1.76-6.88-1-10.11.18-.74-6.27-4.91-7.07-5.48-2.42-1.74-4.89-3.39-7.4-5-10.84-7-22.15-12.25-33.5-18.25-14-7.39-24.13-20.38-24.12-36.51,0-12.57,4.89-28,4.89-28S86.14,66,124.3,79.27Z" fill="none" stroke="#9b8579" stroke-linecap="round" stroke-linejoin="round" stroke-width="1.65"/><path d="M74.5,126S58,131.57,64.69,173.9s-1.24,61.18,7.81,64c8.41,2.57,13.29-37.22,22.73-50.25a49.69,49.69,0,0,0,9.31-26.91" fill="#fdeac7"/><path d="M231.23,151.37a6.16,6.16,0,0,1-1.82,1.91.88.88,0,0,1-1.2-.31c-.13-.27-.28-.52-.42-.77-2.1-1-3.61-2.91-5.59-4.14a28.88,28.88,0,0,0-12-3.58l.37.26a.89.89,0,0,1-.44,1.64,50.24,50.24,0,0,0-9,1.31c-1.72.86-3.44,1.74-5.14,2.58a37.82,37.82,0,0,0-4.27,2.38c-2.28,2.45-4.51,6.15-3.62,8.86a10.21,10.21,0,0,0,.74,1.33.74.74,0,0,1,.08.67c3.92,3.56,13.16,1.87,18.49,2.41l.75-.14a2.82,2.82,0,0,1-.88-2.46,5,5,0,0,1,2.67-3.38c2.32-1.4,7-2.46,8,1.17a1.8,1.8,0,0,1,0,.26,3.42,3.42,0,0,1,.13,1.44,1.8,1.8,0,0,1,.07.86,8.53,8.53,0,0,1-1.78,3.63,1.79,1.79,0,0,1-.57.92c-3.09,2.81-6.18,6.11-10.25,7.36,7.61-.37,15.79-1.47,22.06-6.1,3.09-2.28,6.4-5.53,7.31-9.4S233.64,153.76,231.23,151.37Z" fill="#f8f8f7"/><path d="M210.12,155.77s10.17-5.41,10,4.31c-.06,4.72-5.73,11.44-12.18,14-4.17,1.68-11,2.78-14.93.56-1.06-.6-3.6-1.74-4.51-4.1" fill="none" stroke="#9b8579" stroke-linecap="round" stroke-linejoin="round" stroke-width="1.65"/><path d="M79.2,220.41c-1.77-.75-3.59.59-5.41.37-2.18-.26-4.3-1.79-6.07-3.43,0,12.55-.22,19,4.77,20.5,3.63,1.11,6.6-5.68,9.57-14.8A7.88,7.88,0,0,0,79.2,220.41Z" fill="#f8f8f7"/><path d="M63.46,147.78C62,160.9,64.73,173.92,66.3,186.89s.11,25.91,1.19,38.88c.28,3.39.46,11.4,5.38,11.7,4.58.28,7-7.52,8.26-10.74,4.26-10.79,5.87-22.45,10.81-33,2.42-5.17,5.37-10.15,7.82-15.29" fill="none" stroke="#9b8579" stroke-linecap="round" stroke-linejoin="round" stroke-width="1.62"/><path d="M81.64,123.55l.42-.05a82.19,82.19,0,0,0,32.35-10.79c7.4-4.5,17.57-11.91,19.79-20.78,1-4.14.29-8.52-.85-12.63-3.72-13.39-10.79-26.06-16.5-38.69,0,0,4.23-35.23-3.67-39.36S86.7,19.48,86.7,19.48c-9.79-3.59-21.91-4-32-1.73a47.55,47.55,0,0,0-5.92,1.73S30.17-2.87,22.26,1.25s-3.67,39.36-3.67,39.36C12.87,53.24,5.81,65.91,2.09,79.3.95,83.41.2,87.79,1.24,91.93,3.46,100.8,13.62,108.22,21,112.71,39,123.61,61.09,126,81.64,123.55Z" fill="#fdeac7"/><path d="M131.82,74.36a49.75,49.75,0,0,1-28.21,4.52c-14.25-2-26.18-14-40.73-12C49.62,68.66,37.87,77,24.46,79.28,17,80.52,9.28,80.61,2.49,78c-.13.44-.28.87-.4,1.3C.95,83.41.2,87.79,1.24,91.93,3.46,100.8,13.62,108.22,21,112.71,39,123.61,61.09,126,81.64,123.55l.42-.05a82.19,82.19,0,0,0,32.35-10.79c7.4-4.5,17.57-11.91,19.79-20.78,1-4.14.29-8.52-.85-12.63C132.88,77.64,132.37,76,131.82,74.36Z" fill="#f8f8f7"/><path d="M64,69.91a17.5,17.5,0,0,1,9.71-.37,1.55,1.55,0,0,1,1,2,5.75,5.75,0,0,1-5.46,4c-2.49.17-4.7-2.27-5.85-3.83A1.14,1.14,0,0,1,64,69.91Z" fill="#9b8579"/><line x1="69.25" y1="80.75" x2="69.25" y2="75.51" fill="none" stroke="#9b8579" stroke-linecap="round" stroke-linejoin="round" stroke-width="1.65"/><path d="M82.33,77s2.48,9-12.88,3.75h-.2C53.89,86,56.37,77,56.37,77" fill="none" stroke="#9b8579" stroke-linecap="round" stroke-linejoin="round" stroke-width="1.65"/><path d="M40.38,54.35S44,47.76,50,47.16s1.2,5,1.2,5A23.61,23.61,0,0,1,40.38,54.35Z" fill="#f8f8f7"/><path d="M89.45,49.39s-3.6-6.59-9.66-7.19-1.2,5-1.2,5A23.61,23.61,0,0,0,89.45,49.39Z" fill="#f8f8f7"/><ellipse cx="50.04" cy="60.5" rx="5.39" ry="3.91" transform="translate(-17.85 21.06) rotate(-20.25)" fill="#9b8579"/><ellipse cx="83.1" cy="60.5" rx="3.91" ry="5.39" transform="translate(-2.43 117.51) rotate(-69.75)" fill="#9b8579"/><path d="M24.68,11.48c2.18-1.49,12.54,5.63,16.66,9.26A2.1,2.1,0,0,1,41,24.15L28.78,29.47a2.34,2.34,0,0,1-3.38-1.31C23.8,23.21,22.52,13,24.68,11.48Z" fill="#f8f8f7"/><path d="M110.38,13.14c-2.18-1.49-12.54,5.62-16.67,9.25a2.1,2.1,0,0,0,.35,3.41l12.2,5.33a2.34,2.34,0,0,0,3.38-1.31C111.25,24.87,112.55,14.62,110.38,13.14Z" fill="#f8f8f7"/><path d="M53.13,58.83c-.08-.17-.17-.35-.26-.52a1.71,1.71,0,0,0-.31-.47c-.47-.45-1.6-.39-2.21-.37s-1.43.16-1.6.88c-.28,1.15,1.69,1.95,2.53,2.13a2,2,0,0,0,1.64-.35A1,1,0,0,0,53.13,58.83Z" fill="#f8f8f7"/><path d="M85.58,58.93c-.16-.6-1-.87-1.47-1-.74-.25-2.16-.6-2.42.49A1.44,1.44,0,0,0,82,59.54a2.31,2.31,0,0,0,2.86.71A1.17,1.17,0,0,0,85.58,58.93Z" fill="#f8f8f7"/><path d="M68,71.09a7.7,7.7,0,0,1,1.57.41c.66.29.85.78,1.32,1.24a1.83,1.83,0,0,0,.36.29l0,0a1,1,0,0,0,.5.12,1.57,1.57,0,0,0,1.5-1.76A1.75,1.75,0,0,0,71.56,70c-.75-.09-1.51-.11-2.26-.14-.52,0-1.49-.24-1.91.15a.8.8,0,0,0-.23.75.24.24,0,0,0,.06.12.27.27,0,0,0,.1.05A6.51,6.51,0,0,0,68,71.09Z" fill="#f8f8f7"/><path d="M81.64,123.55l.42-.05a82.19,82.19,0,0,0,32.35-10.79c7.4-4.5,17.57-11.91,19.79-20.78,1-4.14.29-8.52-.85-12.63-3.72-13.39-10.79-26.06-16.5-38.69,0,0,4.23-35.23-3.67-39.36S86.7,19.48,86.7,19.48c-9.79-3.59-21.91-4-32-1.73a47.55,47.55,0,0,0-5.92,1.73S30.17-2.87,22.26,1.25s-3.67,39.36-3.67,39.36C12.87,53.24,5.81,65.91,2.09,79.3.95,83.41.2,87.79,1.24,91.93,3.46,100.8,13.62,108.22,21,112.71,39,123.61,61.09,126,81.64,123.55Z" fill="none" stroke="#9b8579" stroke-linecap="round" stroke-linejoin="round" stroke-width="1.49"/><path d="M65.21,124.24" fill="none" stroke="#61a7d5" stroke-linecap="round" stroke-linejoin="round" stroke-width="1.49"/></g></g></svg>